<svg xmlns="http://www.w3.org/2000/svg"
 xmlns:xlink="http://www.w3.org/1999/xlink"
 width="75px" height="54px"  viewBox="0 0 75 54">
<path fill-rule="evenodd"  fill="#444444"
 d="M51.31836,22.581581 C51.31836,22.581581 50.727264,22.536674 50.3179,23.203522 C49.908783,23.870064 49.863342,24.49231 49.04486,26.625732 C48.226715,28.759155 47.862335,33.425865 39.768402,33.425865 C32.71997,33.425865 30.718628,27.870232 30.21875,26.847816 C29.734802,25.859077 29.05661,23.97049 27.99997,23.97049 C26.943237,23.97049 26.265167,25.859077 25.781555,26.847816 C25.281311,27.870232 23.280212,33.425865 16.231903,33.425865 C8.137726,33.425865 7.773468,28.759155 6.9553223,26.625732 C6.136963,24.49231 6.0911865,23.870064 5.6821594,23.203522 C5.272705,22.536674 4.681946,22.581581 4.681946,22.581581 C4.681946,22.581581 4.0,20.047989 4.408905,19.469734 C17.574646,18.493736 26.161133,21.017006 27.99997,21.0252 C29.838684,21.017006 38.425995,18.493736 51.591522,19.469734 C51.99994,20.047989 51.31836,22.581581 51.31836,22.581581 ZM6.5226135,20.179657 C6.1397095,20.179657 5.828644,20.482742 5.828644,20.857727 C5.828644,21.231804 6.1397095,21.535194 6.5226135,21.535194 C6.905426,21.535194 7.2164917,21.231804 7.2164917,20.857727 C7.2164917,20.482742 6.905426,20.179657 6.5226135,20.179657 ZM19.371948,21.070404 C18.621765,20.936607 14.233643,20.785217 11.39209,20.66993 C10.756256,20.654762 8.185669,21.003662 8.390198,23.736572 C8.595032,26.470703 8.230408,32.136772 15.347839,32.136772 C20.942871,32.136772 23.66986,29.870163 24.419922,25.53688 C25.170074,21.202988 20.122894,21.202988 19.371948,21.070404 ZM44.49536,20.66993 C41.653564,20.785217 37.26535,20.936607 36.51541,21.070404 C35.764557,21.202988 30.717255,21.202988 31.467407,25.53688 C32.217712,29.870163 34.944702,32.136772 40.539368,32.136772 C47.657043,32.136772 47.292297,26.470703 47.497284,23.736572 C47.701782,21.003662 45.131226,20.654762 44.49536,20.66993 ZM49.825226,20.179657 C49.442444,20.179657 49.131165,20.482742 49.131165,20.857727 C49.131165,21.231804 49.442444,21.535194 49.825226,21.535194 C50.208252,21.535194 50.519318,21.231804 50.519318,20.857727 C50.519318,20.482742 50.208252,20.179657 49.825226,20.179657 ZM40.722717,16.075432 C36.73181,15.922829 34.204834,16.472565 32.81189,16.674011 C31.395325,16.936745 31.112091,16.851189 31.078094,16.843605 C35.305878,15.52478 38.80423,15.226852 41.258423,14.441994 C43.783325,13.817009 45.26361,12.704491 47.097534,13.453247 C47.102783,13.455376 47.156128,13.886795 47.063538,14.254196 C46.985596,14.569412 46.75363,14.83033 46.808105,14.807571 C47.472656,14.531792 47.721924,14.260262 47.66333,13.508469 C47.610565,12.870743 47.09375,11.274925 47.862335,13.263023 C49.585022,18.218864 45.185913,16.154915 40.722717,16.075432 ZM23.151337,16.943726 C21.76764,16.689484 19.264587,16.042969 15.270477,16.041145 C10.807861,15.948616 6.3289795,17.841751 8.250122,12.956299 C9.097992,10.998848 8.51709,12.574036 8.439056,13.209328 C8.350006,13.958084 8.588165,14.239021 9.241058,14.539986 C9.294495,14.564865 9.073517,14.295151 9.00827,13.977501 C8.9305725,13.606766 9.001282,13.1777725 9.006683,13.175652 C10.86908,12.497887 12.303589,13.666229 14.801147,14.38829 C17.22171,15.267509 20.705627,15.699532 24.876648,17.179764 C24.842438,17.186134 24.556091,17.260765 23.151337,16.943726 ZM10.404907,44.380287 C10.404907,45.0447 11.423767,46.657814 11.472076,46.325302 C11.520477,45.99279 11.957428,45.091423 11.957428,45.091423 C11.957428,45.091423 11.763428,47.225456 13.851196,47.415375 C16.397827,47.64686 17.34668,42.932518 19.174286,40.976883 C22.04425,37.9066 27.477203,40.50815 28.19165,44.086906 C28.226013,44.25711 28.25827,44.427307 28.284943,44.595993 C28.311584,44.427307 28.344543,44.25711 28.377502,44.086906 C29.092316,40.50815 34.52585,37.9066 37.395355,40.976883 C39.222412,42.932518 40.171234,47.64686 42.718903,47.415375 C44.806305,47.225456 44.611206,45.091423 44.611206,45.091423 C44.611206,45.091423 45.048004,45.99279 45.096527,46.325302 C45.145752,46.657814 46.164948,45.0447 46.164948,44.380287 C46.164948,43.715866 46.844177,46.325302 46.50403,48.269104 C45.678925,52.99922 40.79309,52.6752 37.342926,51.51808 C34.707825,50.633713 31.28305,49.19687 29.408173,47.74485 C28.740417,47.227272 28.415283,46.675713 28.284943,46.104134 C28.1539,46.675713 27.829346,47.227272 27.161469,47.74485 C25.286255,49.19687 21.861603,50.633713 19.226593,51.51808 C15.776672,52.6752 10.891296,52.99922 10.065247,48.269104 C9.725952,46.325302 10.404907,43.715866 10.404907,44.380287 ZM1.9999084,1.9994583 C1.9999084,1.9994583 73.99997,1.9994583 73.99997,1.9994583 C73.99997,1.9994583 73.99997,17.999512 73.99997,17.999512 C73.99997,17.999512 1.9999084,17.999512 1.9999084,17.999512 C1.9999084,17.999512 1.9999084,1.9994583 1.9999084,1.9994583 Z"/>
</svg>